
<svg version="1.1" id="Capa_1" xmlns="http://www.w3.org/2000/svg" xmlns:xlink="http://www.w3.org/1999/xlink" x="0px" y="0px"
	 viewBox="0 0 23.8 23.5" style="enable-background:new 0 0 23.8 23.5;" xml:space="preserve">
<style type="text/css">
	.st0{fill:#0d85e7;}
</style>
<g>
	<polygon class="st0" points="11.4,6.9 17.2,22.6 23,6.9 	"/>
	<path class="st0" d="M12.1,17.8c-5,1-9.4-3.4-8.4-8.4c0.5-2.8,2.8-5.1,5.6-5.6c2.1-0.4,4,0.1,5.5,1.2h3.7c-1.5-2-3.7-3.5-6.2-3.9
		C5.7-0.1-0.1,5.7,1,12.4c0.7,4.1,3.9,7.3,8,8c2.1,0.3,4,0,5.7-0.7l-0.9-2.5C13.3,17.5,12.7,17.7,12.1,17.8z"/>
</g>
</svg>
