<?xml version="1.0" encoding="utf-8"?>
<!-- Generator: Adobe Illustrator 22.0.1, SVG Export Plug-In . SVG Version: 6.00 Build 0)  -->
<svg version="1.1" id="Capa_1" xmlns="http://www.w3.org/2000/svg" xmlns:xlink="http://www.w3.org/1999/xlink" x="0px" y="0px"
	 viewBox="0 0 23.8 23.5" style="enable-background:new 0 0 23.8 23.5;" xml:space="preserve">
<style type="text/css">
	.st0{stroke:#FFFFFF;stroke-width:1.8883;stroke-linecap:round;stroke-linejoin:round;}
</style>
<g>
	<path d="M11.5,0.1C4.8-1-1,4.8,0.1,11.5c0.7,4.1,3.9,7.3,8,8c6.7,1.1,12.4-4.6,11.3-11.3C18.8,4.1,15.5,0.8,11.5,0.1z M11.2,16.8
		c-5,1-9.4-3.4-8.4-8.4c0.5-2.8,2.8-5.1,5.6-5.6c5-1,9.4,3.4,8.4,8.4C16.3,14,14,16.3,11.2,16.8z"/>
	<polygon class="st0" points="9.8,5 16.3,22.6 22.8,5 	"/>
</g>
</svg>
