<svg version="1.1" id="Capa_1" xmlns="http://www.w3.org/2000/svg" xmlns:xlink="http://www.w3.org/1999/xlink" x="0px" y="0px"
	 viewBox="0 0 42 45.2" style="enable-background:new 0 0 42 45.2;" xml:space="preserve">
	 
<g>
	<g>
		<path d="M41.7,32.7c-0.4-0.5-1.1-0.7-1.7-0.5c-1.7,0.6-3.5,0.9-5.4,0.9c-9.1,0-16.6-7.4-16.6-16.6c0-5.5,2.7-10.6,7.3-13.7
			c0.5-0.3,0.8-1,0.6-1.6c-0.1-0.6-0.6-1.1-1.3-1.2C24,0,23.3,0,22.6,0C10.1,0,0,10.1,0,22.6s10.1,22.6,22.6,22.6
			c7.9,0,15.1-4,19.2-10.7C42.1,33.9,42.1,33.2,41.7,32.7z"/>
	</g>
</g>
</svg>
