<svg version="1.1" id="Capa_1" xmlns="http://www.w3.org/2000/svg" x="0" y="0" viewBox="0 0 478.7 478.7" xml:space="preserve"><style>.st0{fill:#737373}</style><ellipse transform="rotate(-44.911 238.538 239.915)" class="st0" cx="238.5" cy="239.9" rx="77.9" ry="77.9"/><path class="st0" d="M457.5 267.9L428 250.8c.7-11.8.3-23.7-1.2-35.3l28.3-19c12-8.1 16.4-23.6 10.4-36.8L448 121.4c-5.8-13.3-20.4-20.2-34.4-16.4l-32.9 8.7c-7.9-8.8-16.5-16.9-25.8-24.1l6.5-33.4c2.8-14.2-5.1-28.3-18.7-33.3L303 8.1c-7.4-2.8-15.4-2.5-22.6.8-5.6 2.6-10.2 6.7-13.3 12.1L250 50.5c-12.2-.7-24.4-.3-36.5 1.4L194.7 24c-8.1-12-23.6-16.4-36.8-10.4l-38.3 17.5c-13.2 6-20.1 20.6-16.3 34.6L112 99c-8.7 7.8-16.8 16.5-23.9 25.9l-33.2-6.6c-6-1.2-12.3-.4-17.9 2.1-7.2 3.3-12.7 9.2-15.4 16.6L6.7 176.6c-5.1 13.5.4 28.7 12.9 36l29.9 17.3c-.7 11.8-.1 23.6 1.5 35.3L23 284c-12 8.1-16.4 23.6-10.4 36.8l17.5 38.3c6 13.2 20.6 20.1 34.6 16.3l33.3-8.8c7.8 8.7 16.5 16.8 25.9 23.9l-6.6 33.1c-2.8 14.2 5.1 28.3 18.7 33.3l39.5 14.8c7.4 2.8 15.4 2.5 22.6-.8 5.6-2.6 10.2-6.7 13.3-12.1l17.3-29.9c11.4.6 22.8.2 34.1-1.3l19 28.3c8.1 12 23.6 16.4 36.8 10.4l38.4-17.5c13.2-6 20.1-20.6 16.3-34.6l-8.7-32.9c8.8-7.9 16.9-16.5 24.1-25.8l33.4 6.5c6 1.2 12.3.4 17.9-2.1 7.2-3.3 12.6-9.2 15.4-16.6l14.8-39.5c5.2-13.5-.2-28.7-12.7-35.9zM239.4 371.6c-73 0-132.3-59.2-132.3-132.3S166.3 107 239.4 107s132.3 59.2 132.3 132.3-59.3 132.3-132.3 132.3z"/></svg>